<?xml version="1.0" standalone="no"?>
<!DOCTYPE svg PUBLIC "-//W3C//DTD SVG 20010904//EN"
 "http://www.w3.org/TR/2001/REC-SVG-20010904/DTD/svg10.dtd">
<svg version="1.0" xmlns="http://www.w3.org/2000/svg"
 width="200.000000pt" height="200.000000pt" viewBox="0 0 200.000000 200.000000"
 preserveAspectRatio="xMidYMid meet">
<metadata>
Created by potrace 1.14, written by Peter Selinger 2001-2017
</metadata>
<g transform="translate(0.000000,200.000000) scale(0.100000,-0.100000)"
fill="#000000" stroke="none">
<path d="M340 1735 c0 -18 -5 -25 -20 -25 -18 0 -20 -7 -20 -60 0 -53 -2 -60
-20 -60 -19 0 -20 -7 -20 -145 0 -138 1 -145 20 -145 19 0 20 -7 20 -230 l0
-230 -45 0 c-38 0 -45 -3 -45 -20 0 -17 7 -20 45 -20 38 0 45 -3 45 -20 0 -13
7 -20 20 -20 18 0 20 -7 20 -65 l0 -65 -40 0 c-33 0 -40 -3 -40 -20 0 -15 -7
-20 -25 -20 -18 0 -25 -5 -25 -20 0 -15 7 -20 25 -20 18 0 25 5 25 20 0 18 7
20 60 20 53 0 60 -2 60 -20 0 -13 7 -20 20 -20 15 0 20 -7 20 -25 0 -24 2 -25
65 -25 58 0 65 -2 65 -20 0 -18 7 -20 60 -20 53 0 60 -2 60 -20 0 -13 -7 -20
-20 -20 -18 0 -20 -7 -20 -60 0 -53 -2 -60 -20 -60 -17 0 -20 -7 -20 -45 0
-38 -3 -45 -20 -45 -18 0 -20 -7 -20 -60 0 -53 -2 -60 -20 -60 -16 0 -20 -7
-20 -30 l0 -30 475 0 475 0 0 30 c0 23 -4 30 -20 30 -18 0 -20 7 -20 60 0 53
-2 60 -20 60 -17 0 -20 7 -20 45 0 38 -3 45 -20 45 -18 0 -20 7 -20 60 0 53
-2 60 -20 60 -13 0 -20 7 -20 20 0 18 7 20 60 20 53 0 60 2 60 20 0 18 7 20
65 20 63 0 65 1 65 25 0 18 5 25 20 25 13 0 20 7 20 20 0 18 7 20 60 20 53 0
60 -2 60 -20 0 -15 7 -20 25 -20 18 0 25 5 25 20 0 15 -7 20 -25 20 -18 0 -25
5 -25 20 0 17 -7 20 -40 20 l-40 0 0 65 c0 58 2 65 20 65 13 0 20 7 20 20 0
17 7 20 45 20 38 0 45 3 45 20 0 17 -7 20 -45 20 l-45 0 0 230 c0 223 1 230
20 230 19 0 20 7 20 145 0 138 -1 145 -20 145 -18 0 -20 7 -20 60 0 53 -2 60
-20 60 -15 0 -20 7 -20 25 0 24 -3 25 -60 25 -57 0 -60 -1 -60 -25 0 -23 -4
-25 -45 -25 -38 0 -45 -3 -45 -20 0 -13 -7 -20 -20 -20 -13 0 -20 -7 -20 -20
0 -13 -7 -20 -20 -20 -13 0 -20 -7 -20 -20 0 -13 -7 -20 -20 -20 -13 0 -20 -7
-20 -20 0 -13 -7 -20 -20 -20 -13 0 -20 -7 -20 -20 0 -20 -7 -20 -275 -20
-268 0 -275 0 -275 20 0 13 -7 20 -20 20 -13 0 -20 7 -20 20 0 13 -7 20 -20
20 -13 0 -20 7 -20 20 0 13 -7 20 -20 20 -13 0 -20 7 -20 20 0 13 -7 20 -20
20 -13 0 -20 7 -20 20 0 17 -7 20 -45 20 -41 0 -45 2 -45 25 0 24 -3 25 -60
25 -57 0 -60 -1 -60 -25z"/>
<path d="M1760 400 c0 -15 -7 -20 -25 -20 -18 0 -25 -5 -25 -20 0 -13 -7 -20
-20 -20 -13 0 -20 -7 -20 -20 0 -13 -7 -20 -20 -20 -15 0 -20 -7 -20 -25 0
-18 -5 -25 -20 -25 -13 0 -20 -7 -20 -20 0 -13 -7 -20 -20 -20 -18 0 -20 -7
-20 -60 0 -53 -2 -60 -20 -60 -16 0 -20 -7 -20 -30 l0 -30 145 0 c90 0 145 4
145 10 0 6 9 10 20 10 13 0 20 7 20 20 0 17 7 20 40 20 33 0 40 3 40 20 0 13
7 20 20 20 13 0 20 7 20 20 0 13 7 20 20 20 18 0 20 7 20 85 0 78 -2 85 -20
85 -13 0 -20 7 -20 20 0 13 -7 20 -20 20 -13 0 -20 7 -20 20 0 18 -7 20 -80
20 -73 0 -80 -2 -80 -20z"/>
</g>
</svg>
