<?xml version="1.0" standalone="no"?>
<!DOCTYPE svg PUBLIC "-//W3C//DTD SVG 20010904//EN"
 "http://www.w3.org/TR/2001/REC-SVG-20010904/DTD/svg10.dtd">
<svg version="1.0" xmlns="http://www.w3.org/2000/svg"
 width="512.000000pt" height="512.000000pt" viewBox="0 0 512.000000 512.000000"
 preserveAspectRatio="xMidYMid meet">
<metadata>
Created by potrace 1.11, written by Peter Selinger 2001-2013
</metadata>
<g transform="translate(0.000000,512.000000) scale(0.100000,-0.100000)"
fill="#000000" stroke="none">
<path d="M2355 5090 c-129 -13 -328 -54 -437 -91 -192 -65 -476 -220 -599
-328 -24 -20 -86 -60 -137 -87 -255 -135 -495 -386 -699 -734 -54 -91 -82
-148 -148 -295 -25 -55 -85 -237 -105 -316 -26 -100 -47 -215 -65 -349 -16
-118 -21 -705 -6 -729 19 -29 28 3 35 120 14 236 92 565 163 689 14 25 14 24
8 -10 -3 -19 -10 -60 -16 -90 -15 -90 -11 -467 6 -572 29 -177 56 -304 86
-407 16 -53 19 -96 19 -265 0 -163 4 -218 20 -291 11 -49 25 -94 30 -99 6 -6
10 -16 10 -23 0 -25 55 -129 119 -227 101 -156 257 -329 438 -487 56 -49 106
-89 111 -89 27 0 30 27 11 84 -11 32 -19 62 -17 67 2 5 18 -5 37 -22 110 -100
358 -206 539 -229 42 -6 105 -15 138 -20 34 -6 107 -10 162 -10 66 0 103 -4
108 -12 4 -6 -7 -24 -27 -43 -29 -26 -49 -34 -115 -44 -84 -13 -283 -65 -318
-83 -26 -13 -96 -79 -96 -90 0 -19 41 -6 68 21 20 20 56 38 115 56 82 25 279
66 285 60 2 -2 -13 -35 -32 -74 l-36 -71 24 0 c20 0 31 14 73 97 43 87 54 102
105 137 32 22 60 37 63 34 3 -3 -4 -59 -15 -124 -24 -146 -24 -144 -1 -144 16
0 22 11 30 57 16 85 63 316 66 329 2 8 59 13 172 17 153 4 223 14 296 42 15 6
17 0 17 -62 l0 -70 -92 -43 c-163 -75 -217 -102 -230 -118 -7 -8 -20 -38 -29
-66 -9 -28 -20 -59 -24 -68 -6 -16 -1 -18 42 -18 27 0 55 6 61 12 10 10 15 10
21 0 5 -8 18 -12 29 -10 l21 3 -19 43 c-23 50 -41 53 -70 11 -29 -40 -33 -33
-14 26 l17 47 116 54 c64 29 142 67 174 84 l57 31 30 -63 c17 -35 30 -70 30
-78 0 -9 -16 -48 -35 -88 l-34 -72 25 0 c22 0 30 10 56 70 17 38 36 70 42 70
6 0 52 -7 101 -15 141 -23 267 -64 327 -106 26 -19 68 -26 68 -11 -1 12 -83
69 -133 90 -57 25 -230 69 -310 78 -61 7 -90 25 -85 53 3 12 24 19 98 27 278
34 519 131 861 347 26 17 29 17 29 3 0 -9 -18 -52 -40 -96 -44 -88 -49 -110
-22 -110 30 0 191 100 392 242 183 129 481 423 583 574 78 118 136 230 173
339 26 75 28 93 31 285 7 350 -52 854 -154 1325 -19 88 -44 201 -54 250 -11
50 -22 97 -25 105 -3 8 -19 67 -35 130 -88 343 -208 583 -400 798 -239 268
-513 444 -854 550 -155 48 -324 71 -610 82 -399 17 -513 18 -600 10z m-688
-1524 c1 -73 9 -180 18 -236 8 -57 14 -105 12 -106 -2 -2 -25 8 -51 21 -27 14
-64 27 -83 31 -34 6 -35 8 -28 43 10 54 120 381 128 381 1 0 3 -60 4 -134z
m1153 -240 l43 -133 -41 -38 c-42 -38 -55 -75 -26 -75 8 0 27 14 41 30 13 17
30 30 36 30 7 0 32 -53 57 -118 24 -64 73 -175 108 -246 48 -99 60 -131 50
-137 -37 -24 -61 -2 -112 99 -26 51 -56 70 -56 35 0 -21 40 -108 63 -138 14
-18 12 -21 -31 -45 -26 -15 -57 -33 -69 -40 -21 -14 -26 -11 -81 43 -32 31
-63 57 -69 57 -31 0 -20 -27 33 -81 l58 -59 -35 -37 c-50 -53 -79 -97 -105
-162 l-24 -56 0 115 c0 172 18 473 40 665 23 196 60 425 69 425 4 0 26 -60 51
-134z m-1188 -123 c69 -38 84 -59 108 -153 71 -286 241 -696 373 -902 41 -64
54 -75 69 -60 8 8 2 54 -20 159 -29 135 -60 312 -77 437 -9 66 8 52 35 -30 42
-125 156 -330 329 -591 126 -192 179 -263 193 -263 18 0 19 9 17 173 -1 137 2
173 13 175 7 2 29 38 50 80 74 157 208 262 353 277 103 11 127 3 175 -62 24
-30 39 -54 34 -51 -107 51 -110 51 -194 52 -98 0 -146 -19 -198 -79 -92 -104
-133 -263 -133 -505 0 -185 20 -251 99 -330 72 -72 122 -90 247 -90 161 0 237
38 286 144 46 100 62 208 57 370 -5 122 -9 153 -35 230 l-31 90 32 -35 c17
-19 78 -88 136 -153 58 -64 109 -129 114 -144 22 -69 25 -73 44 -63 14 9 27 0
74 -52 45 -49 59 -59 69 -50 10 10 -1 41 -54 153 -37 77 -74 164 -83 193 -36
119 -58 175 -90 228 -46 76 -196 491 -182 504 2 2 17 -26 32 -63 41 -96 107
-216 206 -377 48 -77 107 -178 132 -225 l46 -85 27 -360 c14 -198 29 -399 32
-447 l6 -86 -36 -49 c-50 -68 -177 -189 -275 -261 -236 -174 -642 -377 -869
-434 -124 -32 -375 -32 -514 -1 -171 39 -317 93 -539 201 -341 166 -505 308
-558 482 -6 19 -23 143 -37 275 -14 132 -38 317 -52 410 -29 190 -39 353 -25
405 l9 35 7 -40 c4 -22 21 -103 39 -180 26 -114 36 -140 50 -140 16 0 18 20
21 245 2 135 7 257 11 272 l7 27 37 -26 c20 -15 38 -28 39 -29 2 -2 -6 -40
-18 -86 -26 -97 -41 -401 -22 -420 23 -23 42 11 42 76 0 106 64 356 90 356 5
0 14 -9 20 -20 6 -11 17 -20 25 -20 12 0 15 15 15 65 0 57 3 69 25 91 65 65
192 92 272 59 86 -36 181 -149 236 -280 44 -106 73 -60 43 69 -32 137 -126
265 -234 318 -66 32 -216 33 -279 1 -24 -12 -45 -18 -47 -15 -10 20 45 380 85
550 l22 94 36 -7 c20 -4 57 -18 83 -32z m-357 -632 c18 -88 18 -91 0 -115 -14
-18 -16 -17 -60 18 -54 45 -54 41 -20 236 36 211 37 211 52 65 7 -71 20 -163
28 -204z m1744 -287 c37 -47 26 -176 -22 -244 -49 -71 -116 -78 -143 -15 -59
142 83 364 165 259z m1494 -149 c54 -51 70 -99 75 -225 5 -140 -13 -232 -63
-339 -35 -73 -136 -211 -155 -211 -13 0 -13 -6 10 94 29 120 69 410 76 546 6
126 11 160 22 160 4 0 20 -11 35 -25z m-352 -307 c104 -355 141 -475 149 -489
11 -21 -6 -37 -75 -72 -72 -36 -130 -43 -185 -21 -25 9 -48 20 -52 23 -4 4 4
81 17 171 36 235 36 234 44 224 4 -5 25 -53 46 -108 38 -94 56 -119 75 -100 8
8 -28 327 -46 412 -12 59 5 33 27 -40z m-3287 -323 c50 -100 96 -125 96 -53 0
17 3 28 6 25 13 -13 82 -237 73 -237 -18 0 -108 91 -140 142 -39 60 -91 198
-76 198 2 0 20 -34 41 -75z"/>
<path d="M1609 2421 c-75 -24 -134 -110 -166 -241 -26 -109 -26 -405 1 -510
21 -83 48 -143 79 -178 42 -46 205 -69 265 -38 109 57 159 218 149 486 -11
303 -100 478 -249 486 -29 2 -65 0 -79 -5z m45 -133 c22 -32 20 -126 -4 -190
-21 -56 -70 -118 -93 -118 -56 0 -70 132 -24 233 42 93 89 122 121 75z m-108
-396 c-17 -16 -18 -16 -5 5 7 12 15 20 18 17 3 -2 -3 -12 -13 -22z m302 3 c-3
-3 -9 2 -12 12 -6 14 -5 15 5 6 7 -7 10 -15 7 -18z m-291 -87 c-3 -8 -6 -5 -6
6 -1 11 2 17 5 13 3 -3 4 -12 1 -19z m-70 -40 c-3 -8 -6 -5 -6 6 -1 11 2 17 5
13 3 -3 4 -12 1 -19z m340 0 c-3 -8 -6 -5 -6 6 -1 11 2 17 5 13 3 -3 4 -12 1
-19z"/>
<path d="M2044 1019 c-11 -18 30 -62 82 -89 43 -22 63 -25 181 -28 97 -3 153
0 206 12 109 25 189 78 161 106 -8 8 -22 4 -49 -14 -58 -40 -129 -57 -260 -63
-141 -7 -214 9 -269 57 -37 33 -42 35 -52 19z"/>
<path d="M2125 30 l-29 -30 57 0 c31 0 57 2 57 5 0 14 -34 55 -44 55 -7 0 -25
-13 -41 -30z"/>
</g>
</svg>
