<?xml version="1.0" standalone="no"?>
<!DOCTYPE svg PUBLIC "-//W3C//DTD SVG 20010904//EN"
 "http://www.w3.org/TR/2001/REC-SVG-20010904/DTD/svg10.dtd">
<svg version="1.0" xmlns="http://www.w3.org/2000/svg"
 width="776.000000pt" height="776.000000pt" viewBox="0 0 776.000000 776.000000"
 preserveAspectRatio="xMidYMid meet">
<metadata>
Created by potrace 1.11, written by Peter Selinger 2001-2013
</metadata>
<g transform="translate(0.000000,776.000000) scale(0.100000,-0.100000)"
fill="#000000" stroke="none">
<path d="M4750 7659 c-144 -9 -204 -21 -388 -78 -140 -43 -284 -106 -392 -171
l-65 -39 -340 -10 c-378 -12 -506 -26 -790 -85 -61 -13 -262 -79 -320 -106
-11 -5 -31 -12 -45 -16 -46 -13 -303 -134 -395 -186 -228 -130 -400 -265 -600
-469 -158 -163 -286 -325 -412 -525 -77 -124 -178 -319 -198 -384 -4 -14 -16
-44 -26 -68 -28 -60 -94 -312 -128 -482 -55 -277 -63 -397 -59 -885 4 -428 5
-446 36 -665 77 -547 229 -1221 392 -1735 48 -151 133 -403 145 -430 7 -16 18
-43 23 -60 63 -187 231 -536 364 -757 86 -142 202 -274 218 -247 7 12 3 36
-14 80 -103 276 -150 492 -201 924 -19 163 -19 205 -2 205 8 0 39 -22 70 -49
196 -172 430 -306 847 -486 166 -71 343 -130 513 -170 l117 -28 0 -42 c0 -49
-9 -59 -125 -136 -44 -29 -95 -65 -114 -81 -45 -40 -61 -45 -256 -84 -292 -60
-374 -91 -443 -169 -49 -56 -142 -194 -142 -212 0 -22 50 -15 71 9 10 13 18
26 19 29 0 4 16 31 36 60 48 73 122 149 145 149 10 0 33 6 51 14 51 21 142 46
171 46 14 0 38 5 53 10 14 6 57 15 94 20 37 5 75 12 84 16 28 11 19 -22 -39
-141 -30 -62 -55 -117 -55 -122 0 -6 -7 -16 -15 -23 -8 -7 -15 -19 -15 -28 0
-8 -7 -24 -17 -34 -16 -17 -10 -18 164 -18 l180 0 -7 38 c-4 20 -9 44 -11 52
-3 10 4 15 21 15 23 0 25 -4 28 -52 3 -51 4 -53 33 -53 27 0 29 2 29 40 0 22
7 74 16 117 8 43 22 114 30 158 9 44 21 105 29 135 33 137 45 197 45 217 0 48
0 48 168 45 155 -4 310 12 387 40 17 6 44 13 60 15 17 3 36 10 43 16 22 17 32
-11 32 -90 0 -71 -13 -103 -42 -103 -21 0 -320 -145 -374 -182 -52 -35 -56
-40 -78 -113 -23 -74 -81 -219 -107 -262 l-18 -33 37 0 c34 0 39 4 62 50 15
31 30 50 40 49 28 -4 50 13 76 57 29 49 38 53 54 25 18 -35 11 -56 -40 -119
l-50 -62 111 0 c102 0 111 1 104 18 -4 9 -11 29 -15 43 -4 14 -12 34 -18 45
-6 10 -19 39 -29 64 -26 62 -55 109 -72 115 -17 7 -58 -29 -67 -58 -6 -18 -7
-18 -16 -4 -6 11 -4 26 7 46 8 17 15 39 15 50 0 18 48 46 185 106 90 40 235
111 268 132 21 13 41 22 45 19 7 -4 20 -30 65 -128 28 -59 27 -84 -9 -150 -8
-14 -14 -33 -14 -41 0 -8 -7 -20 -15 -27 -8 -7 -15 -20 -15 -30 0 -10 -7 -23
-15 -30 -8 -7 -15 -20 -15 -30 0 -10 -7 -23 -15 -30 -8 -7 -15 -20 -15 -30 0
-10 -6 -23 -14 -29 -8 -6 -16 -21 -19 -31 -4 -17 0 -20 24 -20 24 0 32 7 54
53 14 28 30 60 35 70 25 45 30 55 50 97 12 25 26 52 31 60 10 16 16 30 24 56
11 35 274 -3 455 -67 66 -23 163 -73 188 -96 14 -13 28 -23 32 -23 4 0 35 -34
70 -75 l63 -75 58 0 c33 0 59 4 59 10 0 6 -4 10 -10 10 -19 0 -77 141 -102
250 -2 7 8 16 22 19 14 4 36 23 49 44 13 20 30 37 37 37 7 0 35 -30 62 -67 61
-82 162 -180 258 -251 l71 -52 295 0 295 0 6 112 c6 126 31 227 92 368 132
306 173 432 206 647 11 76 23 212 26 303 3 91 9 169 14 174 4 5 48 -30 101
-81 135 -130 266 -212 488 -306 122 -51 150 -59 168 -48 10 6 -5 29 -58 87
-182 201 -297 428 -351 694 -26 128 -35 394 -20 575 13 142 26 213 195 1050
84 418 138 736 178 1065 9 69 13 235 13 490 0 421 -5 477 -66 745 -39 169 -54
221 -95 332 -127 343 -285 593 -526 829 -194 191 -284 265 -438 358 -215 131
-418 211 -638 251 -99 17 -352 25 -512 14z m-313 -1824 c101 -197 176 -351
238 -490 55 -124 60 -137 105 -250 18 -44 38 -95 46 -113 8 -18 14 -41 14 -50
0 -10 4 -22 8 -27 5 -6 26 -64 47 -130 20 -66 43 -135 51 -153 8 -18 14 -40
14 -48 0 -8 6 -36 14 -62 14 -48 35 -126 60 -229 58 -238 58 -248 -13 -181
-62 59 -125 101 -191 128 -30 12 -66 27 -80 32 -52 22 -239 48 -342 48 -142 0
-276 -26 -428 -82 -19 -7 -75 -37 -124 -65 -49 -29 -90 -53 -92 -53 -9 0 -3
70 11 135 9 39 22 104 31 145 25 125 44 212 60 275 9 33 22 87 30 120 8 33 20
74 25 90 6 17 14 44 19 60 35 131 56 197 104 323 9 23 23 61 32 85 38 101 124
282 163 342 14 22 35 57 46 78 23 44 97 127 113 127 6 0 23 -25 39 -55z
m-2130 -1067 c-2 -13 -4 -3 -4 22 0 25 2 35 4 23 2 -13 2 -33 0 -45z m-16
-358 c-1 -162 -5 -298 -9 -302 -4 -4 -25 8 -46 26 l-39 32 12 90 c7 49 16 123
20 164 5 41 13 102 19 135 6 33 14 82 17 108 4 27 11 47 17 45 7 -3 10 -101 9
-298z m1219 -264 c-10 -248 -11 -332 -2 -351 12 -25 14 -26 99 -23 l87 3 17
85 c10 47 18 96 18 110 1 40 152 144 287 198 133 54 236 72 402 72 269 0 464
-68 587 -205 31 -34 58 -55 71 -55 24 0 34 -31 34 -101 0 -21 5 -60 11 -88 13
-62 36 -72 126 -57 75 13 100 35 109 93 5 38 9 43 20 31 21 -21 38 -406 31
-723 -9 -447 -46 -892 -102 -1235 -8 -47 -17 -102 -20 -123 -5 -30 -23 -55
-93 -126 -91 -92 -207 -189 -305 -256 -106 -72 -202 -135 -222 -145 -11 -6
-36 -20 -55 -31 -19 -12 -57 -34 -85 -50 -66 -38 -349 -179 -359 -179 -4 0
-41 -16 -82 -35 -41 -19 -78 -35 -83 -35 -5 0 -22 -7 -38 -15 -34 -18 -173
-63 -228 -75 -22 -4 -58 -14 -80 -22 -29 -9 -108 -13 -295 -13 -265 0 -271 1
-465 52 -124 32 -161 44 -258 87 -21 9 -44 16 -51 16 -7 0 -38 14 -69 30 -31
17 -63 30 -72 30 -8 0 -41 13 -73 30 -31 16 -120 60 -197 98 -139 68 -213 107
-270 142 -16 10 -47 28 -69 40 -64 35 -188 134 -239 191 -72 80 -112 174 -157
364 -6 28 -18 113 -26 190 -23 236 -33 315 -43 368 -6 29 -17 90 -26 137 -9
47 -23 117 -31 155 -37 166 -43 194 -59 275 -17 87 -35 173 -60 295 -8 39 -22
102 -30 142 -19 89 -20 177 -2 191 7 6 32 14 55 18 40 6 111 62 113 88 0 6 1
100 2 209 2 164 5 199 17 207 32 20 30 23 55 -100 30 -154 63 -256 93 -292 12
-15 31 -18 99 -18 77 0 86 2 125 30 22 17 48 30 57 30 17 0 125 -52 173 -84
21 -14 28 -14 35 -4 4 7 6 110 4 229 -2 133 0 219 6 222 25 16 43 -20 53 -103
19 -165 60 -328 88 -348 14 -11 20 -10 35 9 14 18 17 43 17 163 0 201 6 213
72 153 29 -27 37 -43 47 -98 6 -36 11 -77 11 -90 0 -13 10 -42 23 -64 41 -72
148 -91 327 -60 64 11 165 15 402 15 l318 0 14 23 c9 15 16 70 20 172 7 143
20 253 51 410 8 39 17 87 20 109 5 27 10 35 17 28 8 -8 7 -106 -2 -336z
m-1492 166 c-2 -38 -7 -66 -13 -65 -15 3 -18 39 -10 123 7 68 9 72 17 42 5
-18 8 -63 6 -100z m4262 -1263 c0 -9 7 -33 15 -52 18 -44 21 -251 4 -342 -28
-156 -32 -167 -95 -301 -44 -91 -115 -191 -180 -251 -24 -23 -34 -27 -34 -16
0 14 32 122 62 208 5 17 14 49 19 73 5 23 13 51 19 61 5 11 10 28 10 39 0 11
6 42 14 68 29 102 106 497 106 545 0 14 3 29 7 33 10 10 53 -44 53 -65z
m-2083 -2141 c4 -7 10 -33 14 -58 19 -113 100 -324 154 -396 13 -17 25 -39 27
-50 3 -17 -3 -19 -42 -17 -63 2 -187 22 -234 36 -42 13 -41 11 -110 159 -28
61 -40 73 -71 73 -18 0 -20 7 -20 85 l0 84 30 6 c17 4 39 11 50 17 44 24 161
71 177 72 9 1 20 -5 25 -11z m689 -309 c8 -8 14 -24 14 -35 0 -11 7 -29 15
-40 20 -27 18 -64 -6 -119 -33 -74 -42 -53 -65 148 -4 27 -3 65 1 85 l8 37 10
-30 c5 -16 16 -37 23 -46z m-1831 -96 c-4 -21 -11 -63 -15 -93 -5 -30 -13 -75
-19 -100 -5 -25 -13 -66 -16 -92 -8 -60 -31 -64 -73 -12 -38 46 -54 42 -126
-37 -94 -101 -82 -49 48 211 25 51 136 147 176 153 14 2 27 5 29 6 2 0 0 -16
-4 -36z"/>
<path d="M4610 3306 c-36 -18 -198 -101 -360 -183 -263 -135 -449 -230 -679
-350 -83 -43 -117 -79 -106 -112 7 -23 72 -61 103 -61 10 0 38 -6 63 -14 48
-15 118 -34 219 -60 36 -10 88 -23 115 -31 28 -7 77 -20 110 -28 86 -22 183
-47 235 -62 45 -13 126 -34 230 -62 30 -8 78 -21 106 -29 69 -19 79 -18 109
11 29 30 30 38 10 69 -15 22 -45 33 -190 71 -115 30 -183 48 -225 60 -25 7
-74 20 -110 29 -36 10 -87 23 -115 31 -27 7 -79 21 -115 30 -156 40 -188 48
-240 65 -30 9 -55 20 -55 24 0 4 64 39 142 79 78 40 217 111 310 158 92 48
260 134 373 191 l205 105 3 35 c2 28 -2 40 -20 52 -31 22 -44 20 -118 -18z"/>
<path d="M1415 3264 c-16 -25 -16 -28 2 -53 18 -24 157 -98 395 -210 387 -181
626 -301 632 -316 4 -10 -3 -17 -22 -20 -34 -8 -190 -49 -297 -80 -27 -8 -75
-21 -105 -28 -101 -27 -284 -78 -330 -93 -25 -8 -52 -14 -61 -14 -9 0 -39 -10
-67 -21 -44 -18 -52 -26 -58 -55 -7 -39 -1 -52 34 -65 20 -8 40 -6 77 5 28 8
75 22 105 29 30 8 107 29 170 47 63 17 140 38 170 47 30 8 75 21 100 28 25 7
74 20 110 30 78 20 159 42 220 60 25 7 76 21 113 32 57 15 72 24 88 50 19 31
19 34 3 55 -16 21 -114 73 -369 193 -149 71 -646 310 -780 376 -75 37 -107 37
-130 3z"/>
<path d="M3810 1809 c-14 -6 -54 -15 -90 -19 -36 -5 -92 -13 -125 -19 -93 -17
-658 -14 -785 3 -215 30 -300 36 -321 26 -24 -14 -24 -42 1 -167 40 -197 98
-311 225 -438 140 -140 254 -185 475 -185 192 1 326 38 450 126 65 45 87 67
141 141 97 130 156 296 161 449 l3 89 -55 2 c-30 1 -66 -3 -80 -8z m68 -107
c5 -77 -25 -164 -111 -325 -27 -52 -102 -138 -152 -176 -193 -146 -499 -173
-721 -64 -60 29 -191 151 -217 201 -8 15 -29 56 -48 92 -19 36 -40 82 -47 103
-21 59 -50 186 -44 192 11 11 170 4 245 -10 114 -22 777 -22 860 0 32 8 77 15
100 16 23 0 58 7 77 14 19 7 40 12 45 11 6 -1 11 -26 13 -54z"/>
</g>
</svg>
