<?xml version="1.0" standalone="no"?>
<!DOCTYPE svg PUBLIC "-//W3C//DTD SVG 20010904//EN"
 "http://www.w3.org/TR/2001/REC-SVG-20010904/DTD/svg10.dtd">
<svg version="1.0" xmlns="http://www.w3.org/2000/svg"
 width="400.000000pt" height="400.000000pt" viewBox="0 0 400.000000 400.000000"
 preserveAspectRatio="xMidYMid meet">
<metadata>
Created by potrace 1.11, written by Peter Selinger 2001-2013
</metadata>
<g transform="translate(0.000000,400.000000) scale(0.100000,-0.100000)"
fill="#000000" stroke="none">
<path d="M1375 3974 c-146 -51 -346 -160 -432 -236 -21 -19 -73 -53 -116 -76
-263 -140 -513 -454 -660 -828 -84 -213 -118 -410 -122 -704 -4 -243 0 -313
19 -307 7 2 13 45 17 113 10 169 57 367 118 494 l12 25 -7 -25 c-4 -14 -9
-117 -11 -230 -6 -241 2 -305 63 -548 20 -78 24 -119 24 -245 0 -98 5 -174 15
-214 31 -133 120 -284 262 -447 83 -96 261 -257 278 -252 12 3 12 37 1 86 l-8
35 28 -26 c119 -107 350 -183 597 -196 70 -3 127 -9 127 -13 0 -3 -11 -17 -25
-30 -17 -16 -47 -27 -99 -36 -42 -7 -112 -23 -157 -35 -97 -26 -131 -55 -196
-170 -54 -95 -59 -109 -40 -109 9 0 36 37 63 85 68 121 90 139 204 169 52 13
114 28 138 31 l42 7 -45 -99 c-26 -54 -57 -117 -71 -140 -30 -51 -30 -53 1
-53 17 0 32 10 47 35 13 19 26 35 29 35 4 0 10 -16 13 -35 l7 -35 61 0 60 0
-6 48 c-4 26 -9 59 -12 74 -4 21 -2 28 10 28 12 0 16 -15 18 -72 2 -55 7 -73
18 -76 12 -2 15 13 16 85 1 57 12 141 33 238 17 82 31 150 31 152 0 2 44 3 98
3 84 0 189 15 253 35 17 6 19 1 19 -44 l0 -51 -127 -63 -127 -62 -22 -65 c-12
-36 -40 -102 -63 -147 -35 -70 -38 -83 -24 -83 12 0 31 25 56 70 20 39 44 70
52 70 7 0 22 14 32 30 20 34 29 37 35 12 3 -12 -17 -46 -58 -98 l-64 -79 77
-3 c54 -2 79 1 85 10 8 10 11 10 15 1 2 -7 13 -13 23 -13 17 0 17 6 -9 83 -43
123 -62 167 -74 167 -6 0 -21 -12 -34 -28 l-23 -27 11 35 c7 19 17 40 23 47 6
6 68 38 137 71 l126 59 23 -55 23 -55 -76 -149 c-67 -132 -74 -149 -55 -146
17 2 38 35 92 144 l71 141 40 -5 c79 -9 228 -52 271 -77 47 -28 112 -103 145
-167 11 -21 26 -38 34 -38 19 0 20 -1 -12 61 -16 30 -55 81 -88 115 -70 71
-147 104 -299 130 -85 14 -129 36 -109 55 5 3 49 12 98 18 176 23 357 94 565
219 46 28 86 49 88 47 2 -2 -10 -30 -26 -63 -61 -123 -56 -127 79 -46 322 195
599 464 718 701 70 139 76 169 75 388 -1 346 -62 767 -185 1260 -63 254 -134
425 -237 570 -27 39 -95 116 -150 171 -161 161 -331 266 -545 338 l-107 36
-563 -1 -562 0 -70 -25z m-179 -1011 c-6 -28 6 -219 20 -301 l7 -42 -44 25
c-24 13 -54 25 -66 25 -13 0 -23 5 -23 11 0 11 89 288 97 302 10 16 14 5 9
-20z m875 -253 l33 -100 -32 -33 c-53 -54 -34 -82 20 -30 26 25 28 25 34 7 28
-78 101 -250 130 -302 19 -34 34 -65 34 -67 0 -3 -11 -5 -23 -5 -28 0 -47 19
-76 78 -12 23 -26 42 -31 42 -17 0 -10 -34 18 -85 l28 -50 -49 -27 c-55 -31
-68 -28 -110 22 -23 27 -57 41 -57 23 0 -4 19 -26 41 -49 l42 -42 -35 -44
c-36 -44 -64 -93 -79 -138 -14 -39 -1 356 17 520 19 189 49 380 59 380 2 0 18
-45 36 -100z m-916 -89 c61 -28 76 -51 111 -175 51 -176 98 -297 184 -471 125
-251 164 -283 124 -98 -26 119 -67 374 -61 379 2 2 16 -29 32 -68 15 -40 45
-107 66 -149 51 -103 317 -501 329 -494 6 4 10 62 10 136 0 72 4 129 9 129 5
0 20 24 34 53 65 141 171 217 301 217 68 0 72 -1 97 -33 42 -53 42 -58 2 -35
-54 33 -172 33 -224 1 -74 -46 -122 -154 -140 -313 -26 -230 27 -371 157 -414
69 -23 217 -9 264 24 37 27 75 102 90 180 23 119 6 308 -35 405 -5 11 7 2 25
-20 19 -22 70 -79 112 -127 43 -48 78 -96 78 -106 0 -23 19 -42 35 -36 7 3 28
-13 47 -35 36 -42 58 -52 58 -26 0 9 -22 59 -49 113 -27 53 -59 131 -71 172
-12 41 -39 107 -60 145 -34 63 -140 349 -140 378 0 7 26 -42 59 -108 32 -66
85 -163 118 -215 33 -52 78 -129 101 -170 l41 -75 26 -321 c14 -176 25 -332
25 -346 0 -29 -69 -111 -157 -189 -142 -125 -458 -302 -660 -369 -270 -90
-528 -49 -903 141 -175 89 -246 136 -313 209 -76 82 -90 126 -117 365 -12 110
-32 263 -43 340 -15 96 -20 165 -17 220 5 68 6 75 13 45 35 -158 61 -250 71
-250 8 0 12 53 13 178 1 97 5 191 10 209 l8 31 29 -23 28 -22 -17 -74 c-19
-84 -31 -243 -21 -283 3 -14 13 -26 21 -26 11 0 15 12 15 50 0 61 15 136 42
218 22 63 31 74 42 47 3 -8 12 -15 21 -15 12 0 15 12 15 55 0 55 0 56 47 85
58 37 98 45 154 30 61 -16 144 -102 189 -197 19 -40 38 -73 42 -73 17 0 18 24
3 91 -25 124 -92 212 -196 259 -54 24 -108 25 -176 1 l-53 -18 0 31 c1 68 41
308 71 419 11 43 24 46 84 18z m-260 -458 c20 -126 9 -149 -47 -96 -34 32 -34
34 -6 192 l23 126 8 -65 c4 -36 14 -106 22 -157z m1325 -243 c38 -38 21 -159
-29 -209 -31 -31 -79 -28 -91 5 -25 64 2 173 51 208 31 21 45 20 69 -4z m1131
-110 c35 -20 62 -89 67 -175 7 -145 -40 -284 -129 -378 -31 -32 -48 -44 -45
-32 31 118 76 434 76 535 0 64 1 66 31 50z m-211 -405 c34 -115 63 -214 64
-219 2 -19 -98 -66 -142 -66 -50 0 -106 25 -99 44 3 8 14 75 23 150 10 75 21
136 24 136 3 0 20 -38 38 -85 33 -82 44 -97 57 -75 6 9 -17 225 -32 303 -13
70 7 12 67 -188z m-2512 -137 c21 -25 29 -23 37 10 7 24 11 18 36 -58 16 -46
28 -89 26 -95 -2 -5 -26 13 -53 40 -49 49 -95 130 -108 190 -4 23 0 18 20 -20
15 -27 33 -58 42 -67z m1031 -915 c-4 -21 -13 -72 -20 -113 l-12 -74 -21 27
c-12 15 -29 27 -38 27 -9 0 -34 -21 -57 -47 l-41 -48 43 94 c35 78 50 101 90
133 27 21 52 38 57 38 4 0 4 -17 -1 -37z"/>
<path d="M1167 2020 c-102 -19 -156 -151 -157 -381 0 -127 23 -244 61 -305 38
-62 176 -83 238 -36 64 47 91 143 91 323 0 279 -86 427 -233 399z m17 -96 c47
-47 -14 -234 -76 -234 -20 0 -38 36 -38 74 0 41 30 123 54 149 29 31 39 33 60
11z"/>
<path d="M1487 954 c-12 -13 14 -44 56 -66 37 -20 56 -23 162 -23 133 1 206
18 244 59 33 35 10 40 -42 10 -34 -18 -72 -28 -141 -35 -113 -13 -191 0 -235
37 -31 26 -34 27 -44 18z"/>
<path d="M1170 75 c-17 -44 -13 -75 10 -75 17 0 20 7 20 44 0 52 -16 68 -30
31z"/>
<path d="M2395 19 c-4 -6 -4 -13 -1 -16 8 -8 36 5 36 17 0 13 -27 13 -35 -1z"/>
</g>
</svg>
